<svg width="40" height="40" viewBox="0 0 40 40" fill="none" xmlns="http://www.w3.org/2000/svg">
<path d="M16.6667 10C16.6661 12.3334 17.2779 14.6262 18.441 16.6491C19.6041 18.672 21.2776 20.3543 23.2945 21.5278C25.3114 22.7014 27.601 23.325 29.9344 23.3365C32.2678 23.348 34.5634 22.7469 36.5917 21.5933C35.79 30.05 28.6667 36.6667 20 36.6667C10.795 36.6667 3.33337 29.205 3.33337 20C3.33337 11.3333 9.95004 4.21 18.4067 3.40833C17.2626 5.41656 16.6628 7.68875 16.6667 10ZM6.66671 20C6.66671 23.5362 8.07147 26.9276 10.572 29.4281C13.0724 31.9286 16.4638 33.3333 20 33.3333C22.3558 33.3332 24.6696 32.7094 26.7062 31.5252C28.7427 30.3411 30.4295 28.6389 31.595 26.5917C31.0684 26.6417 30.535 26.6667 30 26.6667C20.795 26.6667 13.3334 19.205 13.3334 10C13.3334 9.465 13.3584 8.93333 13.4084 8.405C11.3611 9.57054 9.65892 11.2573 8.4748 13.2939C7.29068 15.3304 6.66685 17.6442 6.66671 20ZM30.2734 3.81833L31.6667 4.16667V5.83333L30.2734 6.18167C29.6874 6.32822 29.1522 6.63126 28.7251 7.05838C28.298 7.48551 27.9949 8.02067 27.8484 8.60667L27.5 10H25.8334L25.485 8.60667C25.3385 8.02067 25.0355 7.48551 24.6083 7.05838C24.1812 6.63126 23.646 6.32822 23.06 6.18167L21.6667 5.83333V4.16667L23.06 3.81833C23.6457 3.67151 24.1805 3.36836 24.6074 2.94125C25.0342 2.51415 25.337 1.97913 25.4834 1.39333L25.8334 0H27.5L27.8484 1.39333C27.9949 1.97933 28.298 2.51449 28.7251 2.94162C29.1522 3.36874 29.6874 3.67178 30.2734 3.81833ZM38.6067 12.1517L40 12.5V14.1667L38.6067 14.515C38.0207 14.6616 37.4855 14.9646 37.0584 15.3917C36.6313 15.8188 36.3283 16.354 36.1817 16.94L35.8334 18.3333H34.1667L33.8184 16.94C33.6718 16.354 33.3688 15.8188 32.9417 15.3917C32.5145 14.9646 31.9794 14.6616 31.3934 14.515L30 14.1667V12.5L31.3934 12.1517C31.9794 12.0051 32.5145 11.7021 32.9417 11.275C33.3688 10.8478 33.6718 10.3127 33.8184 9.72667L34.1667 8.33333H35.8334L36.1817 9.72667C36.3283 10.3127 36.6313 10.8478 37.0584 11.275C37.4855 11.7021 38.0207 12.0051 38.6067 12.1517Z" fill="black"/>
</svg>
